<svg width="57" height="57" viewBox="0 0 57 57" fill="none" xmlns="http://www.w3.org/2000/svg">
<g clip-path="url(#clip0_1207_194)">
<path d="M55.4956 18.3112C54.1964 16.9004 52.0072 16.1963 48.9279 16.1963H30.9478V23.9392H37.6023V21.9706H47.5915C48.8684 21.9706 49.689 22.1987 50.0584 22.6549C50.4278 23.1111 50.6113 24.0136 50.6113 25.3599C50.6113 26.2028 50.5816 26.8425 50.5245 27.2813C50.465 27.7202 50.3163 28.0772 50.0758 28.3524C49.8353 28.6276 49.5378 28.7962 49.1808 28.8607C48.8237 28.9251 48.2932 28.9574 47.5915 28.9574H39.4692H37.5998H30.9453V41.1433H37.5998V34.7342H48.9254C50.3411 34.7342 51.5336 34.6301 52.4981 34.4193C53.4625 34.2086 54.2733 33.8888 54.9303 33.4623C55.5848 33.0359 56.0956 32.4383 56.4576 31.6722C56.8195 30.9061 57.0749 30.0284 57.2212 29.0392C57.3675 28.0499 57.4419 26.8252 57.4419 25.3599C57.4443 22.0723 56.7948 19.7219 55.4956 18.3112Z" fill="#DA2B36"/>
<path d="M14.4693 28.9594V32.6735H22.9858C22.9858 33.7991 22.7057 34.4313 22.1428 35.0164C21.58 35.6015 20.6726 35.8941 19.4206 35.8941H11.1148C10.6115 35.8941 10.1875 35.8767 9.84292 35.842C9.49829 35.8073 9.14871 35.7305 8.79913 35.6139C8.44706 35.4974 8.16194 35.3263 7.9388 35.1057C7.71566 34.8825 7.51731 34.5949 7.34128 34.2354C7.16525 33.8784 7.03632 33.4297 6.95451 32.8916C6.87269 32.3536 6.83054 31.7214 6.83054 30.995V26.9388C6.83054 24.7966 7.10079 23.3462 7.6388 22.5851C8.17681 21.8239 9.27763 21.4446 10.9388 21.4446H18.6991C19.0958 21.4446 19.3834 21.4471 19.5594 21.4545C19.7354 21.4595 20.0032 21.4793 20.3677 21.5066C20.7296 21.5363 21.0024 21.581 21.1834 21.638C21.3643 21.6975 21.5875 21.7843 21.8503 21.9008C22.1131 22.0173 22.309 22.1636 22.4379 22.3396C22.5668 22.5157 22.6858 22.7413 22.7974 23.0165C22.9065 23.2867 22.966 23.5942 22.9809 23.9388H29.742C29.742 22.8454 29.6329 21.8735 29.4172 21.0231C29.2015 20.1677 28.9436 19.4636 28.6436 18.9082C28.3461 18.3529 27.8998 17.8843 27.3098 17.5025C26.7197 17.1231 26.1916 16.8355 25.7304 16.6421C25.2668 16.4488 24.6073 16.3025 23.747 16.2033C22.8866 16.1041 22.1949 16.0446 21.6743 16.0273C21.1536 16.0099 20.4024 16 19.4181 16H10.9388C9.99168 16 9.14375 16.0298 8.40243 16.0868C7.65863 16.1463 6.895 16.2628 6.11154 16.4388C5.32807 16.6149 4.6413 16.8454 4.05618 17.1331C3.47105 17.4207 2.91569 17.8025 2.38759 18.2835C1.86197 18.7644 1.42809 19.3322 1.08842 19.9868C0.748756 20.6413 0.48347 21.4297 0.290082 22.3471C0.0966951 23.2669 0 24.3057 0 25.4636V31.9421C0 33.0776 0.0917365 34.0991 0.272727 35.0065C0.453718 35.9139 0.701649 36.6924 1.019 37.342C1.33388 37.9916 1.74049 38.5569 2.23883 39.0354C2.73717 39.5164 3.26279 39.9007 3.81816 40.1932C4.37353 40.4858 5.02063 40.7189 5.75947 40.8949C6.49583 41.0709 7.22723 41.1899 7.95367 41.2544C8.68012 41.3189 9.49333 41.3511 10.3933 41.3511H19.4181C20.8115 41.3511 21.9891 41.3015 22.9561 41.2023C23.923 41.1032 24.8106 40.9123 25.6238 40.6321C26.437 40.3519 27.0866 39.9825 27.5726 39.5263C28.0585 39.0701 28.4726 38.4652 28.8197 37.709C29.1643 36.9528 29.4048 36.0701 29.5387 35.0586C29.6726 34.047 29.7395 33.8536 29.7395 32.4255V28.957H14.4693V28.9594Z" fill="#DA2B36"/>
<path d="M22.9805 26.4102H37.4721" stroke="#492323" stroke-width="0.99173" stroke-miterlimit="10" stroke-linecap="round"/>
</g>
<defs>
<clipPath id="clip0_1207_194">
<rect width="57" height="57" fill="white"/>
</clipPath>
</defs>
</svg>
