<svg width="24" height="24" fill="none" xmlns="http://www.w3.org/2000/svg"><path fill-rule="evenodd" clip-rule="evenodd" d="M12.457 2H20a2 2 0 0 1 2 2v.5h-9.543V2Zm-1 0H4a2 2 0 0 0-2 2v.5h9.457V2ZM2 5.5v4h4.91c.136-1.702.959-2.891 1.937-3.677.145-.117.293-.224.443-.323H2Zm-1 5V4a3 3 0 0 1 3-3h16a3 3 0 0 1 3 3v16a3 3 0 0 1-3 3H4a3 3 0 0 1-2.959-2.5H1v-10Zm1 4v-4h5.344c1.147.226 1.886 1.064 2.07 1.918.092.429.042.852-.152 1.212-.183.34-.513.656-1.05.87H2Zm0 1v4h6.848a3.433 3.433 0 0 1-.851-1.17c-.42-.933-.44-1.986-.309-2.83H2Zm.063 5A2 2 0 0 0 4 22h7.457v-1.5H2.063ZM12.456 22H20a2 2 0 0 0 1.937-1.5h-9.48V22ZM22 19.5v-4h-5.775c.13.844.11 1.897-.309 2.83-.192.428-.469.83-.85 1.17H22Zm0-5v-4h-6.391c-.553 0-.925.197-1.165.47-.248.283-.39.69-.39 1.155 0 .913.546 1.935 1.647 2.375H22Zm0-5v-4H11.988c-.611.08-1.642.402-2.515 1.102-.797.64-1.463 1.596-1.568 3.008 1.336.4 2.24 1.454 2.486 2.598a2.754 2.754 0 0 1-.248 1.896c-.286.531-.76.97-1.414 1.263-.162.751-.184 1.743.18 2.553.197.438.505.824.974 1.104.473.282 1.138.476 2.074.476.935 0 1.6-.194 2.073-.476.469-.28.777-.666.974-1.104.364-.81.342-1.802.18-2.553a3.58 3.58 0 0 1-2.13-3.242c0-.66.201-1.316.638-1.814.445-.508 1.1-.811 1.917-.811H22Z" fill="url(#a)"/><defs><radialGradient id="a" cx="0" cy="0" r="1" gradientUnits="userSpaceOnUse" gradientTransform="matrix(17.49998 -16.49998 17.25 18.29546 12.5 12)"><stop stop-color="#F8DDB3"/><stop offset="1" stop-color="#F8DDB3" stop-opacity=".29"/></radialGradient></defs></svg>