<svg width="44" height="40" viewBox="0 0 44 40" fill="none" xmlns="http://www.w3.org/2000/svg">
<circle cx="20" cy="20" r="20" fill="#F5E9EA"/>
<path d="M22.7501 22.78V9.75C22.7501 9.41848 22.6184 9.10054 22.384 8.86612C22.1496 8.6317 21.8316 8.5 21.5001 8.5C21.1686 8.5 20.8507 8.6317 20.6162 8.86612C20.3818 9.10054 20.2501 9.41848 20.2501 9.75V22.78C19.4342 23.0397 18.7219 23.5522 18.2165 24.2434C17.7111 24.9346 17.4387 25.7687 17.4387 26.625C17.4387 27.4813 17.7111 28.3154 18.2165 29.0066C18.7219 29.6978 19.4342 30.2103 20.2501 30.47V32.25C20.2501 32.5815 20.3818 32.8995 20.6162 33.1339C20.8507 33.3683 21.1686 33.5 21.5001 33.5C21.8316 33.5 22.1496 33.3683 22.384 33.1339C22.6184 32.8995 22.7501 32.5815 22.7501 32.25V30.47C23.5661 30.2103 24.2783 29.6978 24.7837 29.0066C25.2891 28.3154 25.5615 27.4813 25.5615 26.625C25.5615 25.7687 25.2891 24.9346 24.7837 24.2434C24.2783 23.5522 23.5661 23.0397 22.7501 22.78Z" fill="#DA2B36"/>
<path d="M40.5626 26.625C40.5597 25.7693 40.286 24.9364 39.7808 24.2458C39.2756 23.5551 38.5647 23.042 37.7501 22.78V9.75C37.7501 9.41848 37.6184 9.10054 37.384 8.86612C37.1496 8.6317 36.8316 8.5 36.5001 8.5C36.1686 8.5 35.8507 8.6317 35.6162 8.86612C35.3818 9.10054 35.2501 9.41848 35.2501 9.75V22.78C34.4342 23.0397 33.7219 23.5522 33.2165 24.2434C32.7111 24.9346 32.4387 25.7687 32.4387 26.625C32.4387 27.4813 32.7111 28.3154 33.2165 29.0066C33.7219 29.6978 34.4342 30.2103 35.2501 30.47V32.25C35.2501 32.5815 35.3818 32.8995 35.6162 33.1339C35.8507 33.3683 36.1686 33.5 36.5001 33.5C36.8316 33.5 37.1496 33.3683 37.384 33.1339C37.6184 32.8995 37.7501 32.5815 37.7501 32.25V30.47C38.5647 30.208 39.2756 29.6949 39.7808 29.0042C40.286 28.3136 40.5597 27.4807 40.5626 26.625Z" fill="#DA2B36"/>
<path d="M33.0626 15.375C33.0597 14.5193 32.786 13.6864 32.2808 12.9958C31.7756 12.3051 31.0647 11.792 30.2501 11.53V9.75C30.2501 9.41848 30.1184 9.10054 29.884 8.86612C29.6496 8.6317 29.3316 8.5 29.0001 8.5C28.6686 8.5 28.3507 8.6317 28.1162 8.86612C27.8818 9.10054 27.7501 9.41848 27.7501 9.75V11.53C26.9342 11.7897 26.2219 12.3022 25.7165 12.9934C25.2111 13.6846 24.9387 14.5187 24.9387 15.375C24.9387 16.2313 25.2111 17.0654 25.7165 17.7566C26.2219 18.4478 26.9342 18.9603 27.7501 19.22V32.25C27.7501 32.5815 27.8818 32.8995 28.1162 33.1339C28.3507 33.3683 28.6686 33.5 29.0001 33.5C29.3316 33.5 29.6496 33.3683 29.884 33.1339C30.1184 32.8995 30.2501 32.5815 30.2501 32.25V19.22C31.0647 18.958 31.7756 18.4449 32.2808 17.7542C32.786 17.0636 33.0597 16.2307 33.0626 15.375Z" fill="#DA2B36"/>
<circle cx="29" cy="15.375" r="4.375" fill="#F0989F"/>
<circle cx="36.1863" cy="26.5795" r="4.375" fill="#F0989F"/>
<circle cx="21.4788" cy="26.5794" r="4.375" fill="#F0989F"/>
</svg>
