<svg width="44" height="40" fill="none" xmlns="http://www.w3.org/2000/svg"><circle cx="20" cy="20" r="20" fill="#F5E9EA"/><path d="M22.75 22.78V9.75a1.25 1.25 0 0 0-2.5 0v13.03a4.036 4.036 0 0 0 0 7.69v1.78a1.25 1.25 0 0 0 2.5 0v-1.78a4.035 4.035 0 0 0 0-7.69ZM40.563 26.625a4.053 4.053 0 0 0-2.813-3.845V9.75a1.25 1.25 0 0 0-2.5 0v13.03a4.036 4.036 0 0 0 0 7.69v1.78a1.25 1.25 0 0 0 2.5 0v-1.78a4.054 4.054 0 0 0 2.813-3.845ZM33.063 15.375a4.053 4.053 0 0 0-2.813-3.845V9.75a1.25 1.25 0 0 0-2.5 0v1.78a4.036 4.036 0 0 0 0 7.69v13.03a1.25 1.25 0 0 0 2.5 0V19.22a4.054 4.054 0 0 0 2.813-3.845Z" fill="#DA2B36"/><circle cx="29" cy="15.375" r="4.375" fill="#F0989F"/><circle cx="36.186" cy="26.579" r="4.375" fill="#F0989F"/><circle cx="21.479" cy="26.579" r="4.375" fill="#F0989F"/></svg>