<svg width="44" height="40" viewBox="0 0 44 40" fill="none" xmlns="http://www.w3.org/2000/svg">
<circle cx="20" cy="20" r="20" fill="#F5E9EA"/>
<path d="M36.5 16.25H34.625V13.125C34.625 11.6332 34.0324 10.2024 32.9775 9.14752C31.9226 8.09263 30.4918 7.5 29 7.5C27.5082 7.5 26.0774 8.09263 25.0225 9.14752C23.9676 10.2024 23.375 11.6332 23.375 13.125V16.25H21.5C20.837 16.25 20.2011 16.5134 19.7322 16.9822C19.2634 17.4511 19 18.087 19 18.75V30C19 30.663 19.2634 31.2989 19.7322 31.7678C20.2011 32.2366 20.837 32.5 21.5 32.5H36.5C37.163 32.5 37.7989 32.2366 38.2678 31.7678C38.7366 31.2989 39 30.663 39 30V18.75C39 18.087 38.7366 17.4511 38.2678 16.9822C37.7989 16.5134 37.163 16.25 36.5 16.25ZM30.25 26.25C30.25 26.5815 30.1183 26.8995 29.8839 27.1339C29.6495 27.3683 29.3315 27.5 29 27.5C28.6685 27.5 28.3505 27.3683 28.1161 27.1339C27.8817 26.8995 27.75 26.5815 27.75 26.25V22.5C27.75 22.1685 27.8817 21.8505 28.1161 21.6161C28.3505 21.3817 28.6685 21.25 29 21.25C29.3315 21.25 29.6495 21.3817 29.8839 21.6161C30.1183 21.8505 30.25 22.1685 30.25 22.5V26.25ZM32.125 16.25H25.875V13.125C25.875 12.2962 26.2042 11.5013 26.7903 10.9153C27.3763 10.3292 28.1712 10 29 10C29.8288 10 30.6237 10.3292 31.2097 10.9153C31.7958 11.5013 32.125 12.2962 32.125 13.125V16.25Z" fill="#DA2B36"/>
<rect x="27.75" y="21.25" width="2.5" height="6.25" rx="1.25" fill="#F5E9EA"/>
</svg>
