<svg width="44" height="40" fill="none" xmlns="http://www.w3.org/2000/svg"><circle cx="20" cy="20" r="20" fill="#F5E9EA"/><path d="M39 22.5h-6.25v.625a3.75 3.75 0 0 1-7.5 0V22.5H19a2.5 2.5 0 0 0-2.5 2.5v5a2.5 2.5 0 0 0 2.5 2.5h20a2.5 2.5 0 0 0 2.5-2.5v-5a2.5 2.5 0 0 0-2.5-2.5Z" fill="#DA2B36"/><path d="M29 7.5a6.442 6.442 0 0 0-3.233.863 6.103 6.103 0 0 0-2.301 2.344 5.795 5.795 0 0 0-.705 3.15 5.84 5.84 0 0 0 1.096 3.044.748.748 0 0 0 .094.137l.093.11c.088.109.178.214.255.3l4.098 4.78a.778.778 0 0 0 .27.201.81.81 0 0 0 .937-.203l3.978-4.653c.161-.167.312-.342.452-.526l.1-.116a.693.693 0 0 0 .094-.144 5.836 5.836 0 0 0 1.016-3.034 5.804 5.804 0 0 0-.746-3.106 6.116 6.116 0 0 0-2.297-2.3A6.45 6.45 0 0 0 29 7.5Zm0 8.25c-.463 0-.917-.132-1.302-.38a2.272 2.272 0 0 1-.863-1.009 2.167 2.167 0 0 1-.134-1.3c.09-.436.314-.837.642-1.152a2.376 2.376 0 0 1 1.2-.616 2.435 2.435 0 0 1 1.354.128c.428.17.794.459 1.052.829.257.37.395.805.395 1.25 0 .597-.247 1.169-.687 1.591A2.395 2.395 0 0 1 29 15.75Z" fill="#F0989F"/></svg>