<svg width="44" height="40" fill="none" xmlns="http://www.w3.org/2000/svg"><circle cx="20" cy="20" r="20" fill="#F5E9EA"/><path d="M35.416 21.79v-2.25a6.757 6.757 0 0 0-5.192-6.577c.011-.044.02-.088.026-.133V9.875a1.25 1.25 0 0 0-2.5 0v2.955c.006.045.015.089.026.133a6.758 6.758 0 0 0-5.192 6.577v2.25c0 2.983-2.334 3.727-2.334 5.219 0 .741 0 1.491.672 1.491h16.155c.673 0 .673-.75.673-1.491 0-1.492-2.334-2.236-2.334-5.219Z" fill="#DA2B36"/><path d="M18.832 20.79a1.25 1.25 0 0 1-1.25-1.25 11.78 11.78 0 0 1 3.147-7.989 1.251 1.251 0 1 1 1.838 1.699 9.289 9.289 0 0 0-2.485 6.296 1.25 1.25 0 0 1-1.25 1.244ZM39.167 20.79a1.25 1.25 0 0 1-1.25-1.25 9.289 9.289 0 0 0-2.485-6.29 1.25 1.25 0 0 1 1.84-1.693 11.78 11.78 0 0 1 3.145 7.99 1.25 1.25 0 0 1-1.25 1.243Z" fill="#F0989F"/><path d="M25.029 29.75a4.316 4.316 0 0 0 7.942 0H25.03Z" fill="#DA2B36"/></svg>