<svg width="44" height="40" fill="none" xmlns="http://www.w3.org/2000/svg"><circle cx="20" cy="20" r="20" fill="#F5E9EA"/><path d="M39 11h-2.5V9.75a1.25 1.25 0 0 0-2.5 0V11h-3.75V9.75a1.25 1.25 0 0 0-2.5 0V11H24V9.75a1.25 1.25 0 0 0-2.5 0V11H19a2.5 2.5 0 0 0-2.5 2.5V31a2.5 2.5 0 0 0 2.5 2.5h20a2.5 2.5 0 0 0 2.5-2.5V13.5A2.5 2.5 0 0 0 39 11ZM19 31V17.25h8.375l.5-.511a5.386 5.386 0 0 1 8.316.511H39V31H19Z" fill="#DA2B36"/><path d="m26.674 21.514-3.563 3.611a1.25 1.25 0 0 0-.361.875v2.5A1.25 1.25 0 0 0 24 29.75h2.5c.328 0 .642-.13.875-.36l3.608-3.564-4.31-4.312ZM34 18.5a3.08 3.08 0 0 0-4.355 0l-1.214 1.229 4.335 4.335L34 22.85a3.078 3.078 0 0 0 0-4.35Z" fill="#F0989F"/></svg>