<svg width="127" height="26" fill="none" xmlns="http://www.w3.org/2000/svg"><path d="M55.496 2.311C54.196.901 52.007.196 48.928.196h-17.98V7.94h6.654V5.971h9.99c1.276 0 2.097.228 2.466.684.37.456.553 1.359.553 2.705 0 .843-.03 1.482-.086 1.921-.06.44-.209.796-.45 1.071-.24.276-.537.444-.894.509-.357.064-.888.096-1.59.096H30.946v12.186H37.6v-6.409h11.325c1.416 0 2.609-.104 3.573-.315.965-.21 1.775-.53 2.432-.957.655-.426 1.166-1.024 1.528-1.79.361-.766.617-1.644.763-2.633.147-.99.22-2.214.22-3.68.003-3.287-.646-5.637-1.945-7.048ZM14.47 12.96v3.713h8.516c0 1.126-.28 1.758-.843 2.343-.563.586-1.47.878-2.722.878h-8.306c-.504 0-.928-.017-1.272-.052a4.833 4.833 0 0 1-1.044-.228 2.17 2.17 0 0 1-.86-.508 3.213 3.213 0 0 1-.598-.87c-.176-.358-.305-.806-.386-1.344a12.77 12.77 0 0 1-.124-1.897v-4.056c0-2.142.27-3.593.808-4.354.538-.761 1.639-1.14 3.3-1.14h7.76c.397 0 .684.002.86.01.176.004.444.024.809.052.362.03.634.074.815.131.181.06.404.146.667.263.263.116.459.263.588.439.129.176.248.401.36.676.109.27.168.578.183.923h6.761c0-1.094-.11-2.065-.325-2.916-.216-.855-.473-1.56-.773-2.115-.298-.555-.744-1.024-1.334-1.406-.59-.379-1.118-.666-1.58-.86-.463-.193-1.123-.34-1.983-.439a26.92 26.92 0 0 0-2.073-.176A72.173 72.173 0 0 0 19.418 0h-8.48c-.946 0-1.794.03-2.536.087a16.42 16.42 0 0 0-2.29.352c-.784.176-1.47.406-2.056.694-.585.288-1.14.67-1.668 1.15a6.09 6.09 0 0 0-1.3 1.704C.748 4.64.483 5.43.29 6.347.097 7.267 0 8.306 0 9.464v6.478c0 1.136.092 2.157.273 3.064.18.908.429 1.686.746 2.336a5.88 5.88 0 0 0 1.22 1.693 6.912 6.912 0 0 0 1.58 1.158c.555.293 1.202.526 1.94.702.737.176 1.468.295 2.195.36.726.064 1.54.096 2.44.096h9.024c1.393 0 2.571-.05 3.538-.149.967-.099 1.855-.29 2.668-.57.813-.28 1.463-.65 1.949-1.106.485-.456.9-1.06 1.247-1.817.344-.756.585-1.639.719-2.65.134-1.012.2-1.205.2-2.634v-3.468H14.47v.002Z" fill="#DA2B36"/><path d="M66.04 1.27v7.787h-.962V1.27h-2.246V.405h5.445v.865H66.04ZM73.456 9.008c-.352.168-.774.253-1.262.253-.489 0-.91-.085-1.262-.253a2.189 2.189 0 0 1-.828-.65c-.201-.265-.36-.605-.474-1.021a6.7 6.7 0 0 1-.228-1.22 15.276 15.276 0 0 1-.054-1.401 13 13 0 0 1 .037-1.021c.025-.313.07-.65.139-1.017.067-.364.17-.682.307-.955.136-.272.305-.525.506-.763.2-.236.459-.417.776-.54.317-.125.68-.187 1.088-.187.489 0 .913.095 1.267.283.357.188.635.424.836.71.2.284.36.639.48 1.063.12.424.197.82.229 1.19s.047.78.047 1.237c0 .538-.017 1.004-.055 1.4a6.92 6.92 0 0 1-.228 1.22c-.116.417-.275.757-.48 1.022a2.31 2.31 0 0 1-.841.65Zm.6-4.433c0-.521-.027-.977-.084-1.371a4.721 4.721 0 0 0-.283-1.081 1.628 1.628 0 0 0-.583-.757c-.255-.176-.567-.265-.937-.265-.36 0-.662.087-.907.258-.246.171-.434.424-.566.756a4.607 4.607 0 0 0-.275 1.081c-.052.39-.077.843-.077 1.364 0 1.37.122 2.35.367 2.943.243.592.74.89 1.485.89.747 0 1.243-.298 1.49-.89.246-.588.37-1.567.37-2.928ZM76.856.404h5.226v8.653h-.96V1.27h-3.305v7.787h-.961V.404ZM84.74.405h4.829v8.652h-.962V1.27h-2.908v3.424c0 .352-.003.642-.005.865-.005.223-.018.51-.042.86-.025.35-.057.635-.097.86-.04.226-.104.467-.194.727-.089.26-.19.466-.307.62-.116.151-.265.28-.451.384a1.244 1.244 0 0 1-.625.156c-.193 0-.384-.024-.578-.071v-.853c.112.04.236.06.372.06.417 0 .682-.3.794-.9.111-.6.168-1.674.168-3.221V.405h.005ZM91.612.405h.962V7.47c0 .225-.007.545-.025.962h.025c.015-.04.06-.201.132-.481.071-.28.143-.516.215-.71L95.614.406h1.393v8.652h-.962V2.16c0-.305.008-.746.025-1.322h-.025c-.104.625-.216 1.094-.337 1.406l-2.705 6.813H91.61V.405h.002ZM99.05 9.057V.404h2.272c.786 0 1.378.194 1.778.578.401.384.6.912.6 1.587 0 .488-.11.9-.33 1.232-.221.332-.531.55-.932.655v.024c.423.057.781.276 1.068.655.288.382.432.863.432 1.448 0 .8-.214 1.413-.643 1.84-.429.423-1.048.637-1.857.637h-2.387v-.003Zm.963-7.787V4.08h1.19c.506 0 .88-.109 1.13-.33.248-.22.372-.595.372-1.123 0-.905-.468-1.358-1.405-1.358h-1.287Zm0 3.676v3.246h1.43c.521 0 .9-.13 1.141-.392.24-.26.359-.672.359-1.232 0-1.081-.528-1.622-1.586-1.622h-1.344ZM106.657.404v3.677h3.305V.404h.962v8.653h-.962v-4.11h-3.305v4.11h-.962V.404h.962ZM113.929.404v3.677h1.14c.417 0 .784.04 1.101.12.317.078.608.21.87.39.266.182.466.442.608.782.139.34.211.756.211 1.244 0 .834-.229 1.448-.685 1.845-.456.397-1.093.595-1.911.595h-2.296V.404h.962Zm0 4.542v3.246h1.093c.618 0 1.079-.117 1.381-.35.305-.233.456-.64.456-1.225 0-.65-.171-1.088-.51-1.321-.34-.233-.876-.35-1.605-.35h-.815Zm6.21-4.542v8.653h-.961V.404h.961ZM122.182.404h4.338v.866h-3.376V4.08h3.161v.865h-3.161v3.246h3.389v.865h-4.349V.404h-.002ZM64.528 16.906v4.446l3.15-4.446h1.202l-2.765 3.618 2.849 5.035h-1.118l-2.309-4.277-1.009 1.262v3.018h-.962v-8.653h.962v-.003ZM69.56 25.56l2.465-8.654h1.274l2.428 8.653h-1.059l-.684-2.487h-2.728l-.637 2.487h-1.058Zm4.208-3.355-1.118-4.602h-.025l-1.14 4.602h2.283ZM78.01 21.893v3.664h-.961v-8.653h2.402c.819 0 1.456.201 1.917.6.461.402.692 1.014.692 1.84 0 .937-.246 1.597-.74 1.976-.493.382-1.174.57-2.047.57H78.01v.003Zm0-4.12v3.254h.938c.736 0 1.274-.109 1.61-.324.334-.216.505-.67.505-1.359 0-.585-.151-.994-.456-1.225-.305-.233-.766-.35-1.381-.35H78.01v.003ZM86.337 17.771v7.788h-.962v-7.788H83.13v-.865h5.444v.866h-2.236ZM90.845 16.906v3.677h1.14c.417 0 .784.04 1.101.12.317.078.608.21.87.39.266.182.466.442.608.782.139.34.21.756.21 1.244 0 .834-.228 1.448-.684 1.845-.456.397-1.093.595-1.911.595h-2.296v-8.653h.962Zm0 4.542v3.246h1.093c.617 0 1.079-.117 1.381-.35.305-.233.456-.64.456-1.225 0-.65-.17-1.088-.51-1.321-.34-.233-.876-.35-1.605-.35h-.815Zm6.213-4.542v8.653h-.962v-8.653h.962Z" fill="#292D2F"/><path d="M22.98 10.41h14.492" stroke="#292D2F" stroke-width=".992" stroke-miterlimit="10" stroke-linecap="round"/></svg>