<svg width="44" height="40" fill="none" xmlns="http://www.w3.org/2000/svg"><rect width="40" height="40" rx="20" fill="#F5E9EA"/><g clip-path="url(#a)"><path d="M44 24.242a7.782 7.782 0 0 0-4.268-6.93c-.08 5.71-4.71 10.34-10.42 10.42a7.782 7.782 0 0 0 6.93 4.267 7.73 7.73 0 0 0 3.947-1.078l3.776 1.044-1.044-3.776a7.73 7.73 0 0 0 1.078-3.947Z" fill="#C9BA81"/><path d="M38.328 17.164c0-5.053-4.11-9.164-9.164-9.164C24.111 8 20 12.11 20 17.164c0 1.647.438 3.25 1.27 4.658l-1.236 4.472 4.472-1.237a9.136 9.136 0 0 0 4.658 1.271c5.053 0 9.164-4.11 9.164-9.164Zm-10.57-2.133h-1.406a2.816 2.816 0 0 1 2.812-2.812 2.816 2.816 0 0 1 2.813 2.812 2.82 2.82 0 0 1-.915 2.076L29.867 18.2v1.097h-1.406V17.58l1.652-1.512a1.408 1.408 0 0 0-.948-2.444c-.776 0-1.407.63-1.407 1.406Zm.703 5.672h1.406v1.406h-1.406v-1.406Z" fill="#DA2B36"/></g><defs><clipPath id="a"><path fill="#fff" transform="translate(20 8)" d="M0 0h24v24H0z"/></clipPath></defs></svg>