<svg width="40" height="40" fill="none" xmlns="http://www.w3.org/2000/svg"><rect width="40" height="40" rx="20" fill="#F5E9EA"/><g clip-path="url(#a)"><path d="M32.73 22.2c-1.2 2.47-3.741 4.236-6.706 4.236-4.024 0-7.412-3.318-7.412-7.412 0-4.024 3.247-7.412 7.412-7.412a7.48 7.48 0 0 1 5.294 2.188 7.295 7.295 0 0 1 1.765 2.894l1.623-1.623a9.719 9.719 0 0 0-1.976-2.824c-1.836-1.764-4.236-2.823-6.777-2.823-5.223.07-9.53 4.376-9.53 9.6 0 5.294 4.307 9.53 9.53 9.53 4.941 0 8.894-3.742 9.46-8.33-1.06.988-1.483 1.976-2.683 1.976ZM38.73 31.73c-1.06 1.058-2.824 1.058-3.954 0l-3.247-3.248c.777-.494 1.553-1.059 2.189-1.694a10.837 10.837 0 0 0 1.764-2.259l3.247 3.247a2.79 2.79 0 0 1 0 3.953Z" fill="#DA2B36"/><path d="m38.094 15.636-1.34 1.34-3.671 3.6a.682.682 0 0 1-.989 0l-2.33-2.329-3.67 3.67a.682.682 0 0 1-.988 0l-1.623-1.623-2.33 2.33c-.282-.353-.564-.847-.776-1.27l2.611-2.471a.682.682 0 0 1 .989 0l1.623 1.623 3.67-3.67a.683.683 0 0 1 .99 0l1.693 1.694.636.635 3.74-3.741.777-.777a.683.683 0 0 1 .988 0 .682.682 0 0 1 0 .989Z" fill="#C9BA81"/></g><defs><clipPath id="a"><path fill="#fff" transform="translate(16 9)" d="M0 0h24v24H0z"/></clipPath></defs></svg>