<svg width="44" height="40" fill="none" xmlns="http://www.w3.org/2000/svg"><rect width="40" height="40" rx="20" fill="#F5E9EA"/><path d="M32 10.396c-5.293 0-9.6 4.307-9.6 9.6v4.133l.001.002v1.073c0 1.064.416 2.072 1.16 2.825l1.104 1.111 1.6.465h.024c1.32 0 2.4-1.08 2.4-2.4v-4.72c0-1.32-1.08-2.4-2.4-2.4h-.024l-1.6.471-.665.668v-1.227c0-4.412 3.59-8 8-8 4.411 0 8 3.588 8 8v1.226l-.664-.666-1.6-.473h-.024c-1.32 0-2.4 1.08-2.4 2.4v4.72c0 1.32 1.08 2.4 2.4 2.4h.024l1.6-.463 1.104-1.112a4.002 4.002 0 0 0 1.16-2.825v-5.207c0-5.294-4.306-9.6-9.6-9.6Z" fill="#DA2B36"/></svg>