<svg width="43" height="40" fill="none" xmlns="http://www.w3.org/2000/svg"><rect width="40" height="40" rx="20" fill="#F5E9EA"/><g clip-path="url(#a)"><path d="M22 8c-1.09 0-2 .91-2 2v21a1 1 0 0 0 1 1h12a1 1 0 0 0 1-1v-4.5a.5.5 0 0 1 .5-.5h.5c.564 0 1 .436 1 1v1c0 1.645 1.355 3 3 3s3-1.355 3-3V15c0-.943-.444-1.834-1.2-2.4l-3.2-2.4a1.002 1.002 0 0 0-1.4.2 1.003 1.003 0 0 0 .2 1.4l1.2.9a1 1 0 0 1 .4.8V16c0 .922.647 1.713 1.506 1.938.267.069.494.286.494.562V28c0 .564-.436 1-1 1-.564 0-1-.436-1-1v-1c0-1.645-1.355-3-3-3h-.5a.5.5 0 0 1-.5-.5V10c0-1.09-.91-2-2-2H22Zm.5 2h9c.277 0 .5.223.5.5v7c0 .277-.223.5-.5.5h-9a.499.499 0 0 1-.5-.5v-7c0-.277.223-.5.5-.5Z" fill="#DA2B36"/><path d="M35 26h-.5v-2h.5c1.645 0 3 1.354 3 3v1c0 .563.436 1 1 1 .564 0 1-.437 1-1v-9.5c0-.277-.227-.494-.494-.563A2.021 2.021 0 0 1 38 15.999v-2.5a1 1 0 0 0-.4-.8l-1.2-.9a1.003 1.003 0 0 1-.2-1.4c.287-.39.911-.567 1.4-.2l3.2 2.4a3.003 3.003 0 0 1 1.2 2.4v13c0 1.645-1.355 3-3 3s-3-1.355-3-3v-1c0-.564-.436-1-1-1Z" fill="#C9BA81"/></g><defs><clipPath id="a"><path fill="#fff" transform="translate(19 8)" d="M0 0h24v24H0z"/></clipPath></defs></svg>