<svg width="18" height="18" fill="none" xmlns="http://www.w3.org/2000/svg"><path d="M16.429 12.845v2.327a1.552 1.552 0 0 1-1.691 1.552 15.354 15.354 0 0 1-6.695-2.382 15.128 15.128 0 0 1-4.655-4.655 15.353 15.353 0 0 1-2.382-6.726 1.552 1.552 0 0 1 1.544-1.69h2.327A1.552 1.552 0 0 1 6.43 2.603c.098.745.28 1.477.543 2.18a1.551 1.551 0 0 1-.349 1.637l-.985.986a12.413 12.413 0 0 0 4.654 4.654l.986-.985a1.551 1.551 0 0 1 1.637-.35 9.966 9.966 0 0 0 2.18.544 1.551 1.551 0 0 1 1.334 1.575Z" fill="#C4C8D4"/></svg>