<svg width="16" height="16" viewBox="0 0 16 16" fill="none" xmlns="http://www.w3.org/2000/svg">
<path d="M15.9995 11.8448V14.1722C16.0003 14.3882 15.9561 14.6021 15.8695 14.8C15.783 14.998 15.656 15.1757 15.4968 15.3218C15.3376 15.4678 15.1496 15.579 14.945 15.6482C14.7403 15.7175 14.5234 15.7432 14.3082 15.7237C11.921 15.4643 9.62793 14.6486 7.61322 13.3421C5.73879 12.151 4.1496 10.5618 2.95851 8.68736C1.64742 6.66349 0.831499 4.35925 0.576853 1.9613C0.557467 1.74677 0.582963 1.53056 0.651717 1.32642C0.720471 1.12229 0.830978 0.934701 0.976201 0.775612C1.12142 0.616524 1.29818 0.489416 1.49522 0.402383C1.69226 0.31535 1.90526 0.270298 2.12067 0.270095H4.44802C4.82451 0.266389 5.18951 0.399712 5.47497 0.645212C5.76044 0.890712 5.94689 1.23164 5.99959 1.60444C6.09782 2.34925 6.28 3.08055 6.54264 3.7844C6.64701 4.06207 6.6696 4.36384 6.60773 4.65396C6.54586 4.94408 6.40211 5.21038 6.19353 5.4213L5.20829 6.40655C6.31266 8.34876 7.92078 9.95689 9.863 11.0613L10.8482 10.076C11.0592 9.86743 11.3255 9.72369 11.6156 9.66181C11.9057 9.59994 12.2075 9.62253 12.4851 9.72691C13.189 9.98955 13.9203 10.1717 14.6651 10.27C15.042 10.3231 15.3861 10.5129 15.6321 10.8033C15.8782 11.0937 16.0089 11.4643 15.9995 11.8448Z" fill="white"/>
</svg>
