<svg width="100" height="100" fill="none" xmlns="http://www.w3.org/2000/svg"><path fill-rule="evenodd" clip-rule="evenodd" d="M74 35H26a8.153 8.153 0 0 0-5.657 2.26C18.843 38.706 18 40.668 18 42.714v38.572c0 2.046.843 4.008 2.343 5.454A8.153 8.153 0 0 0 26 89h48a8.153 8.153 0 0 0 5.657-2.26c1.5-1.446 2.343-3.408 2.343-5.454V42.714c0-2.046-.843-4.008-2.343-5.454A8.153 8.153 0 0 0 74 35ZM54.5 64.484c-.302.2-.5.528-.5.89v7.197a1 1 0 0 1-1 1h-6a1 1 0 0 1-1-1v-7.197c0-.361-.198-.69-.5-.89C43.396 63.1 42 60.79 42 58.143c0-2.046.843-4.008 2.343-5.455A8.153 8.153 0 0 1 50 50.428c2.122 0 4.157.813 5.657 2.26 1.5 1.447 2.343 3.409 2.343 5.455 0 2.643-1.396 4.953-3.5 6.341Z" fill="#F7F7F8"/><path d="M50 10c10.693 0 19.453 8.435 19.975 19A.963.963 0 0 1 69 30h-6c-.552 0-.996-.45-1.041-1-.51-6.15-5.68-11-11.959-11-6.28 0-11.449 4.85-11.959 11-.045.55-.489 1-1.041 1h-6a.963.963 0 0 1-.975-1C30.547 18.435 39.307 10 50 10Z" fill="#F7F7F8"/></svg>