<svg width="100" height="100" fill="none" xmlns="http://www.w3.org/2000/svg"><path d="m88.299 41.163-3.742-3.746a4.135 4.135 0 0 1-1.225-2.95v-5.3c0-6.892-5.608-12.5-12.5-12.5h-5.3a4.198 4.198 0 0 1-2.946-1.221L58.841 11.7c-4.876-4.875-12.8-4.875-17.675 0l-3.755 3.746a4.198 4.198 0 0 1-2.946 1.22h-5.3c-6.891 0-12.5 5.609-12.5 12.5v5.3a4.148 4.148 0 0 1-1.22 2.95l-3.746 3.742A12.425 12.425 0 0 0 8.036 50c0 3.337 1.305 6.48 3.663 8.837l3.742 3.746a4.135 4.135 0 0 1 1.225 2.95v5.3c0 6.892 5.608 12.5 12.5 12.5h5.3c1.095 0 2.17.446 2.945 1.221l3.746 3.75a12.47 12.47 0 0 0 8.838 3.65c3.2 0 6.4-1.216 8.837-3.654l3.746-3.746a4.233 4.233 0 0 1 2.954-1.22h5.3c6.892 0 12.5-5.609 12.5-12.5v-5.3c0-1.113.434-2.163 1.225-2.95l3.742-3.742A12.435 12.435 0 0 0 91.96 50a12.4 12.4 0 0 0-3.662-8.837Zm-19.32 3.97L43.977 61.8a4.162 4.162 0 0 1-5.258-.52l-8.334-8.334a4.162 4.162 0 0 1 0-5.892 4.162 4.162 0 0 1 5.892 0l5.917 5.917L64.353 38.2a4.162 4.162 0 0 1 5.78 1.154 4.163 4.163 0 0 1-1.155 5.78Z" fill="#F7F7F8"/></svg>