<svg width="100" height="100" fill="none" xmlns="http://www.w3.org/2000/svg"><g filter="url(#a)"><path fill-rule="evenodd" clip-rule="evenodd" d="M21.926 14.583a5.259 5.259 0 0 0-5.26 5.26V80.32a5.259 5.259 0 0 0 5.26 5.259h27.913a5.259 5.259 0 0 0 5.259-5.26V19.843a5.259 5.259 0 0 0-5.26-5.259H21.927Zm4.652 7.282a2.63 2.63 0 0 0-2.63 2.63v9.304a2.63 2.63 0 0 0 2.63 2.63h18.609a2.63 2.63 0 0 0 2.63-2.63v-9.304a2.63 2.63 0 0 0-2.63-2.63H26.578Z" fill="#F7F7F8"/><path d="M49.634 57.363h6.675a7.888 7.888 0 0 1 7.888 7.889v7.888a7.888 7.888 0 0 0 7.889 7.889h2.427A7.888 7.888 0 0 0 82.4 73.14V37.876a7.889 7.889 0 0 0-2.31-5.578L64.197 16.404" stroke="#F7F7F8" stroke-width="7.888" stroke-linecap="round"/><circle cx="71.477" cy="38.248" r="6.978" stroke="#F7F7F8" stroke-width="7.888"/></g><defs><filter id="a" x="0" y="0" width="100" height="100" filterUnits="userSpaceOnUse" color-interpolation-filters="sRGB"><feFlood flood-opacity="0" result="BackgroundImageFix"/><feBlend in="SourceGraphic" in2="BackgroundImageFix" result="shape"/><feColorMatrix in="SourceAlpha" values="0 0 0 0 0 0 0 0 0 0 0 0 0 0 0 0 0 0 127 0" result="hardAlpha"/><feOffset/><feGaussianBlur stdDeviation="19.444"/><feComposite in2="hardAlpha" operator="arithmetic" k2="-1" k3="1"/><feColorMatrix values="0 0 0 0 1 0 0 0 0 1 0 0 0 0 1 0 0 0 0.34 0"/><feBlend in2="shape" result="effect1_innerShadow_67_1691"/></filter></defs></svg>