<svg width="100" height="100" fill="none" xmlns="http://www.w3.org/2000/svg"><path d="M40.933 33.07a4.166 4.166 0 0 0 3.025-1.3 8.508 8.508 0 0 1 11.813-.27 4.166 4.166 0 0 0 6.772-1.48 4.169 4.169 0 0 0-.989-4.524 16.64 16.64 0 0 0-23.642.542 4.167 4.167 0 0 0 3.021 7.033Z" fill="#F7F7F8"/><path d="M79.167 37.5a29.167 29.167 0 0 0-58.334 0A12.5 12.5 0 0 0 8.333 50v8.333a12.5 12.5 0 0 0 12.5 12.5H25a4.167 4.167 0 0 0 4.167-4.166V37.5a20.833 20.833 0 1 1 41.666 0v29.513A12.167 12.167 0 0 1 58.68 79.166h-.346A8.333 8.333 0 0 0 50 70.833h-4.167a8.333 8.333 0 0 0-8.333 8.334v4.166a8.333 8.333 0 0 0 8.333 8.334H50a8.305 8.305 0 0 0 7.175-4.167h1.504a20.5 20.5 0 0 0 20.1-16.667h.388a12.5 12.5 0 0 0 12.5-12.5V50a12.5 12.5 0 0 0-12.5-12.5Z" fill="#F7F7F8"/></svg>